<?xml version="1.0" encoding="UTF-8"?>
<svg xmlns="http://www.w3.org/2000/svg" width="1200" height="260" viewBox="0 0 1200 260" role="img" aria-labelledby="title desc">
  <title id="title">Pedro Rodríguez — Physician, Founder and Health Software Builder</title>
  <desc id="desc">Dark editorial profile banner in amethyst, tomato and mustard.</desc>
  <defs>
    <pattern id="grid" width="60" height="60" patternUnits="userSpaceOnUse">
      <path d="M60 0H0V60" fill="none" stroke="#F4F1F7" stroke-opacity=".05" stroke-width="1" />
    </pattern>
  </defs>
  <rect width="1200" height="260" rx="4" fill="#1A002B" />
  <rect width="1200" height="260" rx="4" fill="url(#grid)" />
  <path d="M0 4A4 4 0 0 1 4 0h1192a4 4 0 0 1 4 4v8H0z" fill="#F4F1F7" />
  <g transform="translate(58 52)">
    <rect width="58" height="58" fill="none" stroke="#F4F1F7" stroke-width="2" />
    <text x="10" y="39" fill="#F4F1F7" font-family="Georgia,Times New Roman,serif" font-size="30">P</text>
    <text x="33" y="40" fill="#F06543" font-family="Georgia,Times New Roman,serif" font-size="27" font-style="italic">r</text>
  </g>
  <text x="142" y="102" fill="#F4F1F7" font-family="Georgia,Times New Roman,serif" font-size="68" letter-spacing="-1.5">Pedro Rodríguez<tspan fill="#F06543">.</tspan></text>
  <text x="60" y="161" fill="#D8D0E0" font-family="Inter,-apple-system,BlinkMacSystemFont,Segoe UI,Helvetica,Arial,sans-serif" font-size="25" letter-spacing="1.6">PHYSICIAN · FOUNDER · HEALTH SOFTWARE BUILDER</text>
  <line x1="58" y1="195" x2="1142" y2="195" stroke="#F4F1F7" stroke-opacity=".10" />
  <text x="60" y="226" fill="#A089B8" font-family="Inter,-apple-system,BlinkMacSystemFont,Segoe UI,Helvetica,Arial,sans-serif" font-size="16" letter-spacing="1.8">MEDICINE × PRODUCT × DATA</text>
  <rect x="786" y="222" width="192" height="5" rx="2.5" fill="#F4F1F7" />
  <rect x="986" y="222" width="94" height="5" rx="2.5" fill="#F06543" />
  <rect x="1088" y="222" width="54" height="5" rx="2.5" fill="#FFD95C" />
</svg>
